<?xml version="1.0" standalone="no"?>
<!DOCTYPE svg PUBLIC "-//W3C//DTD SVG 1.1//EN" "http://www.w3.org/Graphics/SVG/1.1/DTD/svg11.dtd" >
<svg xmlns="http://www.w3.org/2000/svg">
<metadata>
Created by FontForge 20120731 at Mon Sep  5 16:22:05 2016
 By admin
</metadata>
<defs>
<font id="iconfont" horiz-adv-x="1024" >
  <font-face 
    font-family="iconfont"
    font-weight="500"
    font-stretch="normal"
    units-per-em="1024"
    panose-1="2 0 6 3 0 0 0 0 0 0"
    ascent="896"
    descent="-128"
    x-height="792"
    bbox="-0.125 -212 1128.04 896.714"
    underline-thickness="50"
    underline-position="-100"
    unicode-range="U+0078-E634"
  />
<missing-glyph horiz-adv-x="374" 
d="M34 0v682h272v-682h-272zM68 34h204v614h-204v-614z" />
    <glyph glyph-name=".notdef" horiz-adv-x="374" 
d="M34 0v682h272v-682h-272zM68 34h204v614h-204v-614z" />
    <glyph glyph-name=".null" horiz-adv-x="0" 
 />
    <glyph glyph-name="nonmarkingreturn" horiz-adv-x="341" 
 />
    <glyph glyph-name="x" unicode="x" horiz-adv-x="1001" 
d="M281 543q-27 -1 -53 -1h-83q-18 0 -36.5 -6t-32.5 -18.5t-23 -32t-9 -45.5v-76h912v41q0 16 -0.5 30t-0.5 18q0 13 -5 29t-17 29.5t-31.5 22.5t-49.5 9h-133v-97h-438v97zM955 310v-52q0 -23 0.5 -52t0.5 -58t-10.5 -47.5t-26 -30t-33 -16t-31.5 -4.5q-14 -1 -29.5 -0.5
t-29.5 0.5h-32l-45 128h-439l-44 -128h-29h-34q-20 0 -45 1q-25 0 -41 9.5t-25.5 23t-13.5 29.5t-4 30v167h911zM163 247q-12 0 -21 -8.5t-9 -21.5t9 -21.5t21 -8.5q13 0 22 8.5t9 21.5t-9 21.5t-22 8.5zM316 123q-8 -26 -14 -48q-5 -19 -10.5 -37t-7.5 -25t-3 -15t1 -14.5
t9.5 -10.5t21.5 -4h37h67h81h80h64h36q23 0 34 12t2 38q-5 13 -9.5 30.5t-9.5 34.5q-5 19 -11 39h-368zM336 498v228q0 11 2.5 23t10 21.5t20.5 15.5t34 6h188q31 0 51.5 -14.5t20.5 -52.5v-227h-327z" />
    <glyph glyph-name="uniE600" unicode="&#xe600;" 
d="M512 747q-91 0 -174 -35t-142.5 -95t-95 -143t-35.5 -174t35.5 -174t95 -143t142.5 -95.5t174 -35.5t174 35.5t143 95.5t95.5 143t35.5 174t-35.5 174t-95.5 143t-143 95t-174 35zM512.5 -107q-110.5 0 -204.5 54.5t-148.5 148.5t-54.5 204t54.5 204t148.5 148.5
t204.5 54.5t204 -54.5t148 -148.5t54.5 -204t-54.5 -204t-148 -148.5t-204 -54.5zM648 436q-13 13 -31 13t-32 -13l-73 -74l-73 74q-13 13 -31.5 13t-31.5 -13t-13 -31.5t13 -32.5l73 -74l-69 -70v-1l-2 -1q-11 -14 -10.5 -31.5t13 -30t30 -13.5t30.5 11l1 1l1 1l69 70
l69 -70q13 -13 31.5 -13t31.5 13t13 32t-13 32l-69 70l73 74q13 14 13 32.5t-13 31.5z" />
    <glyph glyph-name="uniE601" unicode="&#xe601;" 
d="M958 -42h-848v-51h848v51zM408 349l-215 -156v-172h215v328zM435 455l-28 38l-227 -167l28 -38zM573 325l26 39l-194 129l-26 -39zM830 575l-33 34l-258 -250l32 -34zM651 301l-68 -70l-120 85v-295h188v280zM895 518l-188 -185v-312h189zM749 659l130 -136l21 149z
M738 814zM64 689h46v-782h-46v782z" />
    <glyph glyph-name="uniE602" unicode="&#xe602;" 
d="M387 59v393q0 7 -5 12.5t-12.5 5.5t-13 -5.5t-5.5 -12.5v-393q0 -7 5.5 -12t13 -5t12.5 5t5 12zM530 59v393q0 7 -5.5 12.5t-12.5 5.5t-12.5 -5.5t-5.5 -12.5v-393q0 -7 5.5 -12t12.5 -5t12.5 5t5.5 12zM815.5 488q-7.5 0 -12.5 -5.5t-5 -12.5v-482q0 -15 -10.5 -25.5
t-25.5 -10.5h-500q-15 0 -25.5 10.5t-10.5 25.5v482q0 7 -5 12.5t-13 5.5q-13 0 -17 -14v1v-487q0 -30 20.5 -50.5t50.5 -20.5h500q29 0 50 20.5t21 50.5v482q0 7 -5 12.5t-12.5 5.5zM869 613h-206l-65 66q-6 5 -14 5h-1h-142h-1q-8 0 -14 -5l-65 -66h-206q-7 0 -12.5 -5.5
t-5.5 -13t5.5 -12.5t12.5 -5h214h1q8 0 14 6l66 65h124l66 -65q6 -6 14 -6h1h214q7 0 12.5 5t5.5 12.5t-5.5 13t-12.5 5.5zM673 59v393q0 7 -5.5 12.5t-13 5.5t-12.5 -5.5t-5 -12.5v-393q0 -7 5 -12t12.5 -5t13 5t5.5 12z" />
    <glyph glyph-name="uniE603" unicode="&#xe603;" 
d="M947 -13l-163 163q-15 15 -36.5 18t-39.5 -7l-31 31q75 93 75 214q0 94 -46 173.5t-126 126t-174 46.5t-173.5 -46.5t-126 -126t-46.5 -173.5t46.5 -174t126 -126t173.5 -46q121 0 214 75l31 -31q-10 -18 -7 -39.5t18 -36.5l163 -163q19 -19 46 -19t45 19l31 31
q19 18 19 45t-19 46zM124 406q0 117 82.5 199.5t199.5 82.5t199.5 -82.5t82.5 -199.5t-82.5 -199.5t-199.5 -82.5t-199.5 82.5t-82.5 199.5zM477 235q-103 0 -176.5 73t-73.5 176v4q0 2 0.5 4t0.5 3q-29 -46 -29 -101q0 -80 56.5 -136.5t136.5 -56.5q61 0 111 35
q-13 -1 -26 -1z" />
    <glyph glyph-name="uniE604" unicode="&#xe604;" 
d="M112 737v29q0 11 8 19.5t20 8.5h550q-16 28 -48 28h-502q-23 0 -39.5 -16.5t-16.5 -39.5v-620q0 -23 16.5 -39.5t39.5 -16.5h28v619h-28q-12 0 -20 8.5t-8 19.5zM667 150q1 8 -8.5 19t-22.5 24t-26 43t-16 70h-28q-8 0 -8 8v69h140v326h-112v-257l-96 76l-99 -76v257
h-195v-619h426q7 9 18.5 21t18 20.5t8.5 18.5zM490 565l68 -56v228h-139v-228zM896 330q8 0 8 8v23h-319v-23q0 -8 8 -8h28q0 -45 11.5 -77t25.5 -45.5t26 -27.5t12 -27t-11.5 -30.5t-25.5 -34.5t-25.5 -47t-12.5 -64h-28q-8 0 -8 -8v-23h319v23q0 8 -8 8h-27q0 34 -12 64
t-25.5 47t-25 34.5t-11.5 30.5t11.5 27t25.5 27.5t26 45.5t12 77h26zM755 153q0 -12 11.5 -29.5t25 -34.5t25.5 -47t12 -65h-15q-1 2 -0.5 8.5t-2 11t-10.5 8.5l-22 10q-21 10 -25 13.5t-10 15.5q-5 -12 -9 -15.5t-25 -13.5l-23 -10q-17 -8 -25 -20q-1 -4 -1 -8h-4q2 4 5 8
q1 33 13 61.5t25.5 44.5t24.5 33t11 29q0 13 -11.5 27t-25.5 27.5t-26 45.5t-12 77h169q-1 -45 -12.5 -77t-25.5 -45.5t-25.5 -27.5t-11.5 -27zM718 216l21 -21q6 -4 3 -11l-3 -8q3 -6 5 -21q1 -4 3 -14q1 10 2 14q2 16 5 21l-3 8q-3 7 3 11l21 21q22 22 28 31
q-4 -2 -11 -6.5t-9.5 -6t-8 -4t-9 -3t-8.5 -1.5t-11 -1q-7 0 -12 0.5t-11 3.5t-8.5 4t-12 6.5t-12.5 7.5q6 -9 28 -31z" />
    <glyph glyph-name="uniE605" unicode="&#xe605;" 
d="M669 597l32 -32l-176 -161l-95 96l-175 -160l31 -32l144 128l95 -96l208 193l32 -33v97h-96zM385 189h-74q-9 0 -15.5 -7t-6.5 -17v-140q0 -9 6.5 -16t15.5 -7h74q10 0 16.5 7t6.5 16v140q0 10 -6.5 17t-16.5 7zM555 291h-74q-9 0 -16 -7t-7 -17v-241q0 -10 7 -17t16 -7
h74q10 0 16.5 7t6.5 17v241q0 10 -6.5 17t-16.5 7zM742 376h-74q-10 0 -16.5 -7t-6.5 -17v-326q0 -10 6.5 -17t16.5 -7h74q9 0 15.5 7t6.5 17v326q0 10 -6.5 17t-15.5 7z" />
    <glyph glyph-name="uniE606" unicode="&#xe606;" 
d="M828 684h-632q-56 0 -96 -39.5t-40 -95.5v-498q0 -56 40 -95.5t96 -39.5h632q56 0 96 39.5t40 95.5v498q0 56 -40 95.5t-96 39.5zM196 594h632q19 0 32.5 -13.5t13.5 -31.5v-89h-724v89q0 18 13.5 31.5t32.5 13.5zM828 6h-632q-19 0 -32.5 13.5t-13.5 31.5v319h724v-319
q0 -18 -13.5 -31.5t-32.5 -13.5z" />
    <glyph glyph-name="uniE607" unicode="&#xe607;" 
d="M481.5 748q-97.5 0 -186 -37.5t-152.5 -101.5t-102 -153t-38 -186t38 -185.5t102 -152.5t152.5 -102t186 -38t186 38t152.5 102t102 152.5t38 185.5t-38 186t-102 153t-152.5 101.5t-186 37.5zM683 69q-10 -10 -24 -10t-24 10l-153 153l-154 -154q-10 -10 -24 -10t-24 10
t-10 24t10 24l153 154l-153 154q-10 10 -10 24t10 24t24 10t24 -10l153 -154l154 154q10 10 24 10t24 -10t10 -24t-10 -24l-153 -154l153 -153q10 -10 10 -24t-10 -24z" />
    <glyph glyph-name="uniE608" unicode="&#xe608;" 
d="M384 166l181 51l-130 129zM867 518l-129 128l-284 -282l129 -129zM830 42q0 -34 -24 -57.5t-57 -23.5h-486q-33 0 -57 23.5t-24 57.5v485q0 34 24 57.5t57 23.5h324l81 81h-432q-55 0 -94.5 -39.5t-39.5 -95.5v-539q0 -56 39.5 -95.5t94.5 -39.5h540q56 0 95.5 39.5
t39.5 95.5v431l-81 -81v-323zM928 626l-81 80q-10 10 -25 9.5t-25 -10.5l-39 -39l129 -128l39 38q11 11 11.5 25.5t-9.5 24.5z" />
    <glyph glyph-name="uniE609" unicode="&#xe609;" 
d="M726 599q-16 0 -27.5 -11.5t-11.5 -27.5q0 -21 18 -33l-101 -171q-3 1 -6 1q-13 0 -24 -9l-95 61q5 9 5 18q0 16 -11.5 27.5t-27.5 11.5t-27.5 -11.5t-11.5 -27.5q0 -17 13 -29l-99 -137q-6 2 -12 2q-16 0 -27.5 -11.5t-11.5 -27.5t11.5 -27.5t27.5 -11.5t27.5 11.5
t11.5 27.5q0 17 -13 29l99 137q6 -2 12 -2q14 0 24 9l95 -61q-5 -9 -5 -18q0 -16 11.5 -27.5t27.5 -11.5t27.5 11.5t11.5 27.5q0 21 -18 33l100 170h7q16 0 27.5 11t11.5 27.5t-11.5 28t-27.5 11.5zM307 197q-11 0 -19 8t-8 19t8 19t19 8t18.5 -8t7.5 -19t-7.5 -19t-18.5 -8
zM445 401q-11 0 -18.5 8t-7.5 19t7.5 18.5t18.5 7.5t19 -7.5t8 -18.5t-8 -19t-19 -8zM625 318q0 -11 -8 -19t-19 -8t-19 8t-8 19t8 18.5t19 7.5t19 -7.5t8 -18.5zM726 533q-11 0 -19 8t-8 19t8 19t19 8t19 -8t8 -19t-8 -19t-19 -8zM726 429q-16 0 -27.5 -11.5t-11.5 -27.5
q0 -21 18 -33l-101 -171q-3 1 -6 1q-13 0 -24 -9l-95 61q5 9 5 18q0 16 -11.5 27.5t-27.5 11.5t-27.5 -11.5t-11.5 -27.5q0 -17 13 -29l-99 -137q-6 2 -12 2q-16 0 -27.5 -11.5t-11.5 -27.5t11.5 -27.5t27.5 -11.5t27.5 11.5t11.5 27.5q0 17 -13 29l99 137q6 -2 12 -2
q14 0 24 9l95 -61q-5 -9 -5 -18q0 -16 11.5 -27.5t27.5 -11.5t27.5 11.5t11.5 27.5q0 21 -18 33l100 170h7q16 0 27.5 11t11.5 27.5t-11.5 28t-27.5 11.5zM307 26q-11 0 -19 8t-8 19t8 19t19 8t18.5 -8t7.5 -19t-7.5 -19t-18.5 -8zM445 230q-11 0 -18.5 8t-7.5 19t7.5 18.5
t18.5 7.5t19 -7.5t8 -18.5t-8 -19t-19 -8zM625 146q0 -11 -8 -19t-19 -8t-19 8t-8 19t8 18.5t19 7.5t19 -7.5t8 -18.5zM726 363q-11 0 -19 7.5t-8 18.5t8 19t19 8t19 -8t8 -19t-8 -18.5t-19 -7.5zM832 643h-630q-8 0 -14 -6t-6 -15v-630q0 -9 6 -15t14 -6h630q8 0 14 6t6 15
v630q0 9 -6 15t-14 6zM834 9q0 -8 -5.5 -13.5t-13.5 -5.5h-596q-8 0 -13.5 5.5t-5.5 13.5v596q0 8 5.5 13.5t13.5 5.5h596q8 0 13.5 -5.5t5.5 -13.5v-596z" />
    <glyph glyph-name="uniE60A" unicode="&#xe60a;" 
d="M812 596h-630q-9 0 -15 -6t-6 -15v-631q0 -8 6 -14t15 -6h630q8 0 14 6t6 14v631q0 9 -6 15t-14 6zM803 -28q0 -8 -5.5 -13.5t-13.5 -5.5h-575q-7 0 -12.5 5.5t-5.5 13.5v575q0 8 5.5 13.5t12.5 5.5h575q8 0 13.5 -5.5t5.5 -13.5v-575zM720.5 543q-15.5 0 -27 -11.5
t-11.5 -26.5q0 -17 13 -29l-113 -150q-3 1 -5 1q-9 0 -17 -4l-104 62q2 5 2 11q0 16 -11 27.5t-27 11.5t-27.5 -11.5t-11.5 -27.5q0 -15 12 -27l-109 -136q-6 2 -11 2q-16 0 -27.5 -11.5t-11.5 -27.5t11.5 -27t27.5 -11t27 11t11 27q0 13 -7 23l111 139h5q12 0 22 7l101 -60
q-4 -8 -4 -17q0 -16 11 -27t27 -11t27.5 11t11.5 27t-12 28l113 150h4q15 0 26.5 11.5t11.5 27t-11.5 27t-27 11.5zM720.5 362q-15.5 0 -27 -11.5t-11.5 -27.5q0 -17 13 -28l-113 -150q-3 1 -5 1q-9 0 -17 -5l-104 62q2 6 2 12q0 16 -11 27t-27 11t-27.5 -11t-11.5 -27
t12 -27l-109 -136q-6 1 -11 1q-16 0 -27.5 -11t-11.5 -27t11.5 -27.5t27.5 -11.5t27 11.5t11 27.5q0 12 -7 22l111 140q2 -1 5 -1q12 0 22 8l101 -60q-4 -8 -4 -17q0 -16 11 -27t27 -11t27.5 11t11.5 27t-12 27l113 151h4q15 0 26.5 11t11.5 27t-11.5 27.5t-27 11.5z" />
    <glyph glyph-name="uniE60B" unicode="&#xe60b;" 
d="M233.5 45q-19.5 0 -33 13.5t-13.5 32.5v674q0 20 13.5 33.5t33 13.5t33 -13.5t13.5 -33.5v-674q0 -19 -13.5 -32.5t-33 -13.5zM396 45q-19 0 -33 13.5t-14 32.5v582q0 19 14 33t33 14t33 -14t14 -33v-582q0 -19 -14 -32.5t-33 -13.5zM558 45q-19 0 -32.5 13.5t-13.5 32.5
l1 466q0 19 13.5 33t32.5 14q20 0 33.5 -14t13.5 -33l-1 -466q0 -19 -13.5 -32.5t-33.5 -13.5zM813 45q-16 0 -29 10t-17 26l-139 606q-4 19 6.5 35.5t29 20.5t35 -6t20.5 -29l139 -606q4 -19 -6 -35.5t-29 -20.5q-5 -1 -10 -1zM838 -212h-651q-77 0 -132 54.5t-55 131.5
v211q0 19 14 32.5t33 13.5t32.5 -13.5t13.5 -32.5v-211q0 -38 27.5 -65.5t66.5 -27.5h651q38 0 65.5 27.5t27.5 65.5v211q0 19 13.5 32.5t32.5 13.5t33 -13.5t14 -32.5v-211q0 -77 -54.5 -131.5t-131.5 -54.5z" />
    <glyph glyph-name="uniE60C" unicode="&#xe60c;" 
d="M673 275q-31 14 -70 26q28 15 51 38q70 71 70 170.5t-70 170t-169.5 70.5t-170 -70.5t-70.5 -170t70 -170.5q24 -23 52 -39q-13 -4 -25 -8q-67 -24 -123 -70q-115 -94 -147 -238q-2 -10 3 -18.5t15 -10.5q3 -1 6 -1q8 0 15 5.5t9 14.5q28 127 130 210q49 40 109 62
q61 22 127 22q77 0 141 -26zM293 509q0 79 56 135t135 56t135 -56t56 -135t-56 -135t-135 -56t-135 56t-56 135zM293 509zM762 -42h149l-32 33q-10 9 -0.5 19t19.5 0l56 -56h1v-1v0h1v-1v0v-1h1v-1v0v-1h1v-1v0v-1v0v-1v0v-1v-1v0v-1v-1v0v-1v-1v0l-1 -1v0v-1v0v-1h-1v0v-1
h-1v-1v0l-1 -1l-56 -56q-4 -4 -9.5 -4t-9.5 4q-10 10 0 20l32 32h-149q-5 0 -9.5 4t-4.5 10t4.5 10t9.5 4zM804 125q0 5 -4 9.5t-9 4.5h-183q-5 0 -9 -4.5t-4 -10t4 -9.5t9 -4h183q5 0 9 4t4 10zM776 44q0 6 -4 10t-9 4h-155q-5 0 -9 -4t-4 -10t4 -10t9 -4h155q5 0 9 4t4 10
zM608 -19q-5 0 -9 -4t-4 -10t4 -10t9 -4h84q6 0 10 4t4 10t-4 10t-10 4h-84zM815 -125q2 3 3.5 5t2 3.5t0.5 4.5q0 7 -4 14t-10 7h-232q-2 0 -3 -1q1 1 1 3v270q0 2 -1 3q1 -1 3 -1h249q2 0 3 1q-1 -1 -1 -3v-167q0 -5 7 -9.5t13.5 -4.5t13.5 4.5t7 9.5v167q0 15 -14 29
t-29 14h-249q-15 0 -29 -14t-14 -29v-270q0 -15 14 -29t29 -14h229z" />
    <glyph glyph-name="uniE60D" unicode="&#xe60d;" horiz-adv-x="1025" 
d="M1015 -157l-199 198q115 132 115 305q0 95 -37 181t-99.5 148.5t-148.5 99.5t-180.5 37t-180.5 -37t-148.5 -99.5t-99.5 -148.5t-37 -180.5t37 -180.5t99.5 -148.5t148.5 -99.5t181 -37q173 0 305 115l198 -199q10 -9 23 -9t22.5 9.5t9.5 22.5t-9 23zM465.5 -55
q-108.5 0 -201 54t-146.5 146.5t-54 201t54 201t146.5 146.5t201 54t201 -54t146.5 -146.5t54 -201t-54 -201t-146.5 -146.5t-201 -54zM465.5 703q-96.5 0 -178.5 -48t-130 -130t-48 -178.5t48 -178.5t130 -130t178.5 -48t178.5 48t130 130t48 178.5t-48 178.5t-130 130
t-178.5 48zM238 434l76 117q9 14 27 24t35 10h183q18 0 36 -10t27 -25l72 -117q3 -5 1.5 -11.5t-7.5 -10.5q-4 -2 -8 -2q-9 0 -14 8l-72 116q-4 8 -15 14t-20 6h-183q-9 0 -20 -6t-16 -14l-75 -117q-9 -13 -22 -4q-6 3 -7.5 9.5t2.5 12.5zM324 259l-49 -113q-5 -9 -15 -9
q-3 0 -7 1q-6 3 -8 9t0 12l50 113q3 6 9 8.5t12 -0.5t8.5 -9t-0.5 -12zM678 138q-3 -1 -7 -1q-10 0 -14 9l-50 113q-3 6 -0.5 12t8.5 9t12 0.5t9 -8.5l50 -113q2 -6 0 -12t-8 -9zM695 306h-213v-158q0 -11 -11 -15l-50 -18q-2 -1 -5 -1q-11 0 -15 11q-2 6 0.5 12t9.5 9
l39 14v146h-214q-6 0 -11 5t-5 11.5t5 11t11 4.5h214v75h-143q-7 0 -11.5 5t-4.5 11.5t4.5 11t11.5 4.5h318q6 0 11 -4.5t5 -11t-5 -11.5t-11 -5h-143v-75h213q6 0 11 -4.5t5 -11t-5 -11.5t-11 -5z" />
    <glyph glyph-name="uniE60E" unicode="&#xe60e;" horiz-adv-x="1025" 
d="M945 -212h-866q-33 0 -56 21.5t-23 51.5v768q0 30 23 51.5t56 21.5h39v-109q0 -31 23 -52.5t56 -21.5h79q32 0 55 21.5t23 52.5v109h316v-109q0 -31 23 -52.5t55 -21.5h79q33 0 56 21.5t23 52.5v109h39q33 0 56 -21.5t23 -51.5v-768q0 -30 -23 -51.5t-56 -21.5zM945 446
h-866v-585h866v585zM631 232q-7 -6 -22 -17t-26 -20t-17 -19q-6 -7 -9.5 -14t-6.5 -15t-5 -13t-5 -16t-5 -17q-12 -35 -17 -95h-86q12 81 32 125q16 36 69 97h-141v73h239v-69zM787.5 556q-32.5 0 -55.5 21.5t-23 51.5v110q0 30 23 51.5t55.5 21.5t55.5 -21.5t23 -51.5v-110
q0 -30 -23 -51.5t-55.5 -21.5zM236.5 556q-32.5 0 -55.5 21.5t-23 51.5v110q0 30 23 51.5t55.5 21.5t55.5 -21.5t23 -51.5v-110q0 -30 -23 -51.5t-55.5 -21.5z" />
    <glyph glyph-name="uniE60F" unicode="&#xe60f;" horiz-adv-x="1025" 
d="M1015 -203q-9 -9 -21.5 -9t-20.5 9l-283 282q-117 -101 -272 -101q-113 0 -209.5 56t-152.5 152t-56 209t56 209t152.5 152t209.5 56t209 -56t152 -152t56 -209q0 -156 -103 -274l283 -282q9 -9 9 -21t-9 -21zM777 395q0 97 -48 179.5t-131 130.5t-180 48t-180 -48
t-131 -130.5t-48 -179.5t48 -179.5t131 -130.5t180 -48q72 0 137.5 27t116 77.5t78 116t27.5 137.5zM407 623q-91 -14 -150 -83.5t-59 -160.5q0 -16 3 -35q1 -11 -5 -19t-17 -9q-1 -1 -3 -1q-9 0 -16 6.5t-9 15.5q-3 23 -3 42q0 110 71 193t180 101q10 1 18.5 -5t10 -16
t-4.5 -18.5t-16 -10.5z" />
    <glyph glyph-name="uniE610" unicode="&#xe610;" 
d="M139 -109q-31 0 -47.5 27t-1.5 53l383 714q15 29 48 29t48 -29l381 -714q15 -26 -1 -53t-47 -27h-763zM482 93q-14 -14 -15.5 -31t7.5 -30.5t22.5 -23t31 -8t31.5 15.5q14 15 16.5 33t-7 31.5t-23 22.5t-31.5 7t-32 -17zM466 218q0 -20 11.5 -33.5t27.5 -16.5t32 0
t27.5 16.5t11.5 33.5v220q0 25 -17 39.5t-38 14.5t-38 -14.5t-17 -39.5v-220z" />
    <glyph glyph-name="uniE611" unicode="&#xe611;" 
d="M848 -56h-308v358h308v-358zM176 302h308v-358h-308v358zM120 467h364v-110h-364v110zM903 357h-363v110h363v-110zM282 660q47 0 95.5 -42t86.5 -96h-95q-53 0 -95 25.5t-42 69.5q0 43 50 43zM742 660q51 0 51 -44t-41 -69t-94 -25h-95q38 55 85.5 96.5t93.5 41.5z
M959 467q0 22 -16 38.5t-40 16.5h-95q40 39 40 94q0 41 -25.5 70t-80.5 29q-36 0 -72 -17t-66 -45t-51 -53t-40 -53q-18 27 -39.5 52.5t-52 53.5t-67 45t-72.5 17q-54 0 -80 -29t-26 -70q0 -55 41 -94h-97q-23 0 -39.5 -16.5t-16.5 -38.5v-165h56v-358q0 -23 16.5 -39
t39.5 -16h672q23 0 39.5 16t16.5 39v358h55v165z" />
    <glyph glyph-name="uniE612" unicode="&#xe612;" 
d="M902 7l-156 155q65 88 65 198q0 91 -45 168t-122 122t-168 45t-168.5 -45t-122.5 -122t-45 -168t45 -168.5t122.5 -122.5t168.5 -45q69 0 132 28v1h2h1q16 9 16 28q0 12 -9 21t-22 9h-1h-2q-1 0 -4 -1q-4 -1 -7 -3q-27 -11 -51 -15q-27 -6 -54 -6q-113 0 -193.5 80.5
t-80.5 193.5q0 114 80 194q81 81 194.5 81t194 -80.5t80.5 -194.5q0 -86 -50 -156q-7 -11 -16 -21v-1q-10 -9 -10 -22q0 -12 8 -21v-1h1l21 -22l152 -153q9 -9 22 -9t22 9t9 22t-9 22z" />
    <glyph glyph-name="uniE613" unicode="&#xe613;" 
d="M486 764h-28q-93 0 -178 -39.5t-146 -106.5t-97.5 -159t-36.5 -194q0 -98 38 -186.5t102.5 -152t154 -100.5t189.5 -37t191 37.5t156.5 101t104.5 151t39 183.5v28h-489v474zM917 233q-7 -106 -66.5 -195t-156.5 -140.5t-210 -51.5q-118 0 -216 55.5t-154.5 151.5
t-56.5 212q0 115 49.5 213.5t135 159t188.5 68.5v-439q0 -14 10 -24t23 -10h454zM536 808h-28v-467q0 -14 10 -25q10 -9 24 -9h482v28q0 98 -38 185.5t-103 150.5t-155.5 100t-191.5 37zM565 364v386q163 -9 277 -118.5t124 -267.5h-401zM565 364z" />
    <glyph glyph-name="uniE614" unicode="&#xe614;" 
d="M512 781q-98 0 -187 -38.5t-153 -102.5t-102.5 -153t-38.5 -187t38.5 -187t102.5 -153t153 -102.5t187 -38.5t187 38.5t153 102.5t102.5 153t38.5 187t-38.5 187t-102.5 153t-153 102.5t-187 38.5zM243 31l59 157l93 -92zM419 109l-100 105l280 276l97 -100zM776 467
l-56 -58l-101 101l49 50l8 5q4 3 17.5 3.5t27 -9t27 -22t20.5 -20.5l8 -7q13 -29 0 -43z" />
    <glyph glyph-name="uniE615" unicode="&#xe615;" 
d="M984 499q-39 92 -110 163t-163 110q-95 40 -199 40t-199 -40q-92 -39 -163 -110t-110 -163q-40 -95 -40 -199t40 -199q39 -92 110 -163t163 -110q95 -40 199 -40t199 40q92 39 163 110t110 163q40 95 40 199t-40 199zM723 83q-10 -10 -25 -10t-26 10l-164 164l-164 -164
h-1q-10 -11 -25 -11t-26 11t-11 26t11 25l164 165l-164 164q-11 11 -11 26t11 25q10 11 25 11t26 -11l164 -164l164 165h1q10 10 25 10t26 -10.5t11 -25.5t-11 -26l-164 -164l164 -164q11 -11 11 -26t-11 -26z" />
    <glyph glyph-name="uniE616" unicode="&#xe616;" 
d="M872 -138h-720q-76 0 -107 52t7 119l363 657q37 68 96.5 68t96.5 -68l364 -657q38 -67 7.5 -119t-107.5 -52zM512 689q-19 0 -37 -32l-364 -657q-18 -33 -7 -51t48 -18h720q37 0 48 18t-7 51l-364 657q-18 32 -37 32zM512 173q-14 0 -24 10t-10 24v310q0 15 10 25t24 10
t24 -10t10 -25v-310q0 -14 -10 -24t-24 -10zM512 4q22 0 37.5 16t15.5 38t-15.5 38t-37.5 16t-38 -16t-16 -38t16 -38t38 -16z" />
    <glyph glyph-name="uniE617" unicode="&#xe617;" horiz-adv-x="1230" 
d="M873 648q-8 3 -27 1h-3q-1 -1 -3.5 -1.5t-3.5 -0.5q-66 -11 -137 -22q-45 -6 -45 -10v-2l104 -5l-240 -144l-135 50q-14 0 -28 -10l-102 -108l-106 45q-4 1 -11 3.5t-10.5 3.5t-7.5 1t-7 -2q-7 -5 -5 -14.5t12 -11.5l132 -54q2 0 4 -1t3 -1h2q1 0 3 0.5t4 1.5l1 1
q1 0 3 1l111 115l128 -48q17 0 32 6q1 1 3 1l312 185q21 9 20 16q0 3 -3 4zM1139 812zM152 -209h-32v375h32v-375zM374 -210h-26v479h26v-479zM615 -212h-32v539h32v-539zM871 -211h-33v651h33v-651z" />
    <glyph glyph-name="uniE618" unicode="&#xe618;" 
d="M266 386h-164q-14 0 -24 -10t-10 -25v-345h231v347q0 13 -9.5 23t-23.5 10zM593 526h-164q-13 0 -23.5 -10t-10.5 -25v-485h231v487q1 14 -8.5 23.5t-24.5 9.5zM922 724h-164q-14 0 -24.5 -10t-10.5 -24v-684h232v685q1 14 -9 23.5t-24 9.5z" />
    <glyph glyph-name="uniE619" unicode="&#xe619;" 
d="M553 342v406q110 0 203.5 -54.5t148 -148t54.5 -203.5h-406zM469 -148q-110 0 -204 54.5t-148 148t-54 203.5t54 203.5t148 148t204 54.5v-406h406q0 -110 -54.5 -203.5t-148 -148t-203.5 -54.5z" />
    <glyph glyph-name="uniE61A" unicode="&#xe61a;" 
d="M817 704l-305 -47l-305 47h-47v-578h20l308 -94h8h32h7v6l309 88h20v578h-47zM493 64l-301 92v516h12l292 -45v-563h-3zM832 156l-304 -87v558l291 45h13v-516z" />
    <glyph glyph-name="uniE61B" unicode="&#xe61b;" 
d="M939 586h-14q-7 0 -12.5 5.5t-5.5 12.5v36q0 18 -17 21q-237 45 -360 -41q-13 -9 -18 -9t-18 9q-123 86 -360 41q-17 -3 -17 -21v-36q0 -7 -5.5 -12.5t-12.5 -5.5h-14q-9 0 -15 -6t-6 -15v-428q0 -9 6.5 -15t14.5 -6h362q5 0 8.5 -3.5t3.5 -8.5q0 -13 12 -13h82
q5 0 8.5 3.5t3.5 8.5q0 13 12 13h361q9 0 15.5 6t6.5 15v428q0 9 -6 15t-15 6zM482 157q-116 73 -315 40q-9 -2 -16 4t-7 15v404q0 8 5 14t13 7q208 35 320 -50q16 -12 16 -32v-393q0 -6 -5.5 -9t-10.5 0zM880 217q0 -10 -7 -15.5t-16 -4.5q-199 33 -315 -40q-5 -3 -10.5 0
t-5.5 10v392q0 20 16 32q112 85 320 50q8 -1 13 -7t5 -14v-403zM880 217z" />
    <glyph glyph-name="uniE61C" unicode="&#xe61c;" 
d="M512 -128q-237 0 -345.5 85.5t-108.5 263.5q0 146 98.5 280t238.5 183h234q140 -49 238.5 -183t98.5 -279q0 -179 -108.5 -264.5t-345.5 -85.5zM638 258q16 1 27 12t11 27t-11 27.5t-27 11.5h-78v1v1l91 94q18 20 -7 45q-12 12 -27.5 13.5t-25.5 -7.5l-78 -84l-85 85
q-8 8 -21.5 5.5t-25 -13.5t-13.5 -25t6 -22l87 -86q-3 -4 -4 -7h-70v0q-16 0 -27.5 -11.5t-11.5 -27.5t11.5 -27.5t27.5 -11.5v0h77v-38h-77v0q-16 0 -27.5 -11.5t-11.5 -27.5t11.5 -27t27.5 -11v0h77v-39h1q-1 -5 -1 -10q0 -20 14 -34t34 -14t34 14t14 34q0 5 -1 10h1v39
h78q16 0 27 11t11 27t-11 27.5t-27 11.5h-78v38h78zM695 838l-8 -10v-1l-69 -86h-232l-68 86v1l-1 1l-8 9l2 3q-2 6 -2 7q0 20 19 27l1 2q95 19 173 19q37 0 80.5 -5t68.5 -9l25 -5l1 -2q19 -7 19 -27q0 -2 -2 -7z" />
    <glyph glyph-name="uniE61D" unicode="&#xe61d;" 
d="M874 -110h-750q-28 0 -48 19.5t-20 48.5v750q0 28 20 48t48 20h68v-34q0 -42 30 -72t72.5 -30t72.5 30t30 72v34h205v-34q0 -42 29.5 -72t72 -30t72.5 30t30 72v34h68q29 0 49 -20t20 -48v-750q0 -28 -20 -48t-49 -20zM879 592h-759v-638h759v638zM295 398h-103v102h103
v-102zM295 227h-103v103h103v-103zM295 57h-103v102h103v-102zM465 398h-102v102h102v-102zM465 227h-102v103h102v-103zM465 57h-102v102h102v-102zM636 398h-103v102h103v-102zM636 227h-103v103h103v-103zM636 57h-103v102h103v-102zM806 398h-102v102h102v-102zM806 227
h-102v103h102v-103zM806 57h-102v102h102v-102zM703 674q-28 0 -47.5 19.5t-19.5 47.5v70q0 28 19.5 47.5t47.5 19.5t47.5 -19.5t19.5 -47.5v-70q0 -28 -19.5 -47.5t-47.5 -19.5zM294 674q-28 0 -48 19.5t-20 47.5v70q0 28 20 47.5t47.5 19.5t47.5 -19.5t20 -47.5v-70
q0 -28 -20 -47.5t-47 -19.5zM294 674z" />
    <glyph glyph-name="uniE61E" unicode="&#xe61e;" 
d="M992 -96q-7 -7 -15.5 -7t-13.5 7l-189 189q3 1 13.5 12t15.5 17l189 -186q11 -16 0 -32zM454.5 13q-116.5 0 -215.5 57.5t-156 156t-57 215t57 215.5t156 156t215.5 57t215 -57t156 -156t57.5 -215.5t-57.5 -215t-156 -156t-215 -57.5zM454 826q-105 0 -193.5 -52
t-139.5 -140t-51 -192q0 -106 52 -195t140 -141t192 -52q106 0 195 52t141 141t52 194.5t-52 194t-141 139.5t-195 51zM643 622q-5 5 -14 4t-14 -6l-160 -145l-160 145q-5 5 -14 6t-14 -4q-7 -4 -8 -11t5 -10l146 -131h-108q-21 -6 -21 -19q0 -8 6.5 -12.5t14.5 -4.5h132
v-62h-132q-8 0 -14.5 -4.5t-6.5 -12t6.5 -12t14.5 -4.5h132v-131q0 -6 6.5 -11t14.5 -5t14.5 5t6.5 11v131h132q8 0 14.5 5t6.5 11.5t-6.5 11.5t-14.5 5h-132v62h132q8 0 14.5 5.5t6.5 11.5t-6.5 11t-14.5 5h-108l146 134q6 3 5 10t-8 11z" />
    <glyph glyph-name="uniE61F" unicode="&#xe61f;" 
d="M145 88q-17 17 -17 44v384q0 27 17 44.5t45 17.5h637q28 0 45 -17q20 -21 20 -45v-3l127 3v188q0 28 -10 48q-7 14 -27 42q-11 13 -38 27q-21 10 -48 10h-768q-27 0 -48 -10q-29 -12 -41 -27q-14 -11 -27 -38q-11 -26 -11 -52v-637q0 -26 11 -51q9 -23 27 -41.5t41 -27.5
q26 -10 48 -10h319v127h-254q-29 4 -48 24zM145 88zM999 341q-17 41 -62 93q-41 41 -93 61q-60 24 -113 24q-65 0 -113 -24q-40 -16 -92 -61q-41 -41 -62 -93q-24 -60 -24 -113q0 -65 24 -113q16 -41 62 -93q41 -41 92 -61q60 -24 113 -24q65 0 113 24q52 20 93 61
q44 44 62 93q24 60 24 113q0 60 -24 113zM879 132q0 -10 -7 -17q-2 -3 -4.5 -4.5t-6.5 -3t-6 -2.5h-86v-45q0 -38 -41 -38q-21 0 -31 11q-14 4 -14 27v48h-85q-12 0 -17 10q-7 14 -7 21q0 10 6.5 17t17.5 7h85v27h-85q-11 0 -17.5 7t-6.5 21q0 10 6.5 17t17.5 7h65l-62 106
q-7 7 -7 14q-3 7 -3 17t10 20q5 11 24 11q7 0 21 -7q3 -2 5.5 -4.5t4.5 -5.5t3 -4l69 -123l75 127q1 1 3.5 4t5 5.5t5.5 3.5q14 7 21 7q10 0 13 -3q2 0 5.5 -2t5.5 -2l2 -2q3 -2 3.5 -3.5t0.5 -4.5q4 -3 4 -14q0 -13 -10 -24l-69 -113h62q10 0 17 -7t7 -17v-3q0 -11 -7 -17
q-2 -3 -4.5 -5t-6.5 -3.5t-6 -2.5h-86v-27h86q12 0 17 -10q7 -7 7 -21v0zM879 132z" />
    <glyph glyph-name="uniE620" unicode="&#xe620;" 
d="M208 660h-24v-542h650v23h-626v519zM255 452h78v-289h-78v289zM403 633h78v-470h-78v470zM551 516h78v-353h-78v353zM699 561h78v-398h-78v398z" />
    <glyph glyph-name="uniE621" unicode="&#xe621;" 
d="M512 -107q-100 0 -190.5 39t-156.5 105t-105 156.5t-39 190.5t39 190.5t105 156.5t156.5 105t190.5 39t190.5 -39t156.5 -105t105 -156.5t39 -190.5t-39 -190.5t-105 -156.5t-156.5 -105t-190.5 -39zM512 843q-93 0 -178 -36.5t-146.5 -98t-98 -146.5t-36.5 -178
t36.5 -178t98 -146.5t146.5 -98t178 -36.5t178 36.5t146.5 98t98 146.5t36.5 178t-36.5 178t-98 146.5t-146.5 98t-178 36.5zM512 4q-103 0 -190.5 51t-138.5 138.5t-51 190.5t51 190.5t138.5 138.5t190.5 51t190.5 -51t138.5 -138.5t51 -190.5t-51 -190.5t-138.5 -138.5
t-190.5 -51zM512 732q-94 0 -174.5 -46.5t-127 -127t-46.5 -174.5t46.5 -174.5t127 -127t174.5 -46.5t174.5 46.5t127 127t46.5 174.5t-46.5 174.5t-127 127t-174.5 46.5zM511 359q-48 0 -81.5 33.5t-33.5 80.5t33.5 80.5t81.5 33.5q37 0 67 -21.5t41 -57.5q3 -6 0 -12
t-10 -8q-6 -2 -12 1t-8 9q-8 26 -29.5 41.5t-48.5 15.5q-34 0 -58.5 -24t-24.5 -58t24.5 -58t58.5 -24q6 0 11 -5t5 -11.5t-5 -11t-11 -4.5zM513 162q-30 0 -57 15q-41 24 -53 70q-2 6 1.5 12t10 7.5t12 -1.5t7.5 -10q9 -33 38 -50t63 -8q32 9 49.5 38.5t8.5 62.5
q-7 26 -28 42.5t-47 18.5q-7 0 -11.5 5t-4 11.5t5.5 11t11 4.5q38 -2 66.5 -25.5t38.5 -59.5q12 -46 -11.5 -87t-69.5 -53q-15 -4 -30 -4zM512 125q-7 0 -11.5 5t-4.5 11v467q0 6 4.5 11t11.5 5t11.5 -5t4.5 -11v-467q0 -6 -4.5 -11t-11.5 -5z" />
    <glyph glyph-name="uniE622" unicode="&#xe622;" 
d="M666 234h-134v48h134q9 0 15.5 6.5t6.5 16t-6.5 16t-15.5 6.5h-103l103 145q5 8 2.5 16.5t-10.5 13.5t-17 2.5t-13 -10.5l-118 -166l-119 166q-4 8 -13 10.5t-17 -2.5t-10.5 -13.5t2.5 -16.5l103 -145h-103q-9 0 -15.5 -6.5t-6.5 -16t6.5 -16t15.5 -6.5h134v-48h-134
q-9 0 -15.5 -6.5t-6.5 -15.5t6.5 -15.5t15.5 -6.5h134v-92q0 -9 6.5 -15.5t16 -6.5t16 6.5t6.5 15.5v92h134q9 0 15.5 6.5t6.5 15.5t-6.5 15.5t-15.5 6.5zM665 628l13 22l70 188q0 18 -13 31.5t-31 13.5h-5h-9q-5 -1 -17 -13.5t-28 -25t-31 -12.5t-31 10t-24 18t-20 23
q-12 13 -31 13t-36 -13q-3 -3 -18.5 -19t-28.5 -24t-28 -8t-31.5 12.5t-28.5 25t-16 13.5h-9h-5q-19 0 -33.5 -13.5t-11.5 -31.5q3 -11 22 -58t36 -88l18 -42q6 -13 15 -25q-120 -50 -197 -157t-77 -226q0 -75 34 -131.5t94 -90.5t137 -50.5t169.5 -16.5t169.5 16.5
t137 50.5t93.5 90.5t33.5 131.5q0 121 -79 229.5t-203 156.5zM379 668q-50 115 -68 166q45 -46 86 -46q20 0 39.5 9t29 17.5t23.5 22.5q8 9 11 11t7 3q53 -63 107 -63q40 0 85 45l-62 -166q-3 -6 -16 -25q-53 15 -108 15q-60 0 -118 -18q-12 21 -16 29zM875 133
q-26 -44 -78 -75q-103 -61 -284 -61t-284 61q-51 31 -77 75q-28 46 -28 109q0 67 30 134q30 66 84 119q55 55 124 85q73 32 151 32t151 -32q70 -30 125 -85q54 -53 84 -119q30 -67 30 -134q0 -63 -28 -109z" />
    <glyph glyph-name="uniE623" unicode="&#xe623;" 
d="M339 342q-1 -2 -1 -3l-47 -173q-5 -16 7 -28q9 -9 21 -9q4 0 7 1l172 47v0q4 0 6 2l458 459q21 21 21 52q0 36 -26 63l-44 43q-26 27 -62 27q-32 0 -53 -21l-458 -459v-1h-1zM917 682l-45 -45l-74 75l45 45q5 5 14 4.5t15 -6.5l43 -44q7 -7 7 -16q0 -8 -5 -13zM421 334
l330 331l74 -75l-330 -330l-74 74v0zM360 200l24 88l64 -64l-88 -24v0zM947 501q-14 0 -23 -9.5t-9 -22.5v-427q0 -17 -12 -29t-29 -12h-723q-17 0 -28.5 12t-11.5 29v697q0 17 11.5 29t28.5 12h466q13 0 22 9t9 22.5t-9 22.5t-22 9h-471q-41 0 -70 -29t-29 -70v-707
q0 -41 29 -70t70 -29h733q41 0 70 29t29 70v432q0 13 -9 22.5t-22 9.5z" />
    <glyph glyph-name="uniE624" unicode="&#xe624;" 
d="M1008 -67l-246 246q105 121 105 285q1 87 -32.5 167t-91.5 138t-137.5 92.5t-167 34.5t-168 -34.5t-139 -92.5t-93.5 -138t-35 -167t34.5 -167t92.5 -138t138 -92.5t167 -34.5q155 0 275 99l247 -246q9 -10 24 -10t27 9.5t12 24t-12 24.5zM608 480v-32h-128l-16 -32h144
v-32h-144v-128h54v-32h-166v32h64v128h-147v32h144l-13 32h-112v32h99l-86 160h-42v32h157v-32h-61l83 -160h26l80 160h-64v32h147v-32h-57l-80 -160h118z" />
    <glyph glyph-name="uniE625" unicode="&#xe625;" 
d="M406 -62q-160 27 -242 134t-48 242q18 70 64 140q53 82 116 132q33 26 35 27.5t-11 26.5q-33 63 -5 109.5t109 63.5q32 7 92.5 7t93.5 -7q73 -15 103 -58q34 -49 1 -113l-14 -28l14 -10q20 -14 66.5 -62.5t63.5 -73.5q73 -108 80 -206q8 -101 -49 -182t-163 -119
q-61 -22 -147.5 -28.5t-158.5 5.5zM614 -3q81 12 142 51.5t88 97.5q11 24 14.5 39t5.5 45q1 42 -6.5 72.5t-30.5 75.5q-35 68 -88.5 123.5t-109.5 82.5l-39 19l23 15q21 14 39 39.5t18 41.5t-16 30.5t-43 22.5q-30 9 -94 9t-94 -9q-28 -8 -44 -21.5t-16 -28.5q0 -22 18 -47
t48 -45l12 -8l-33 -15q-75 -36 -141 -115.5t-91 -165.5q-13 -44 -6 -95.5t31 -90.5q12 -19 42 -46t50 -38q130 -66 321 -39zM496 140q-10 10 -10 43v34h-35q-33 0 -46.5 6.5t-15.5 22.5q-2 19 9.5 25.5t46.5 6.5h41v18v18h-41q-27 0 -35 2t-14 9q-13 19 -2.5 32.5t41.5 16.5
l26 3l-26 26q-40 40 -17 61q12 11 24.5 6t39.5 -32l34 -34l35 34q27 27 40 32t24.5 -7t7.5 -25.5t-25 -34.5l-26 -26l27 -3q30 -3 41 -18t-6 -32q-6 -6 -15.5 -8t-33.5 -2h-38v-18v-18h38q30 0 42 -6.5t12 -22.5q0 -17 -11 -23.5t-42 -8.5l-39 -2v-32q0 -53 -31 -53
q-10 0 -20 10z" />
    <glyph glyph-name="uniE626" unicode="&#xe626;" 
d="M406 -62q-160 27 -242 134t-48 242q18 70 64 140q53 82 116 132q33 26 35 27.5t-11 26.5q-33 63 -5 109.5t109 63.5q32 7 92.5 7t93.5 -7q73 -15 103 -58q34 -49 1 -113l-14 -28l14 -10q20 -14 66.5 -62.5t63.5 -73.5q73 -108 80 -206q8 -101 -49 -182t-163 -119
q-61 -22 -147.5 -28.5t-158.5 5.5zM614 -3q81 12 142 51.5t88 97.5q11 24 14.5 39t5.5 45q1 42 -6.5 72.5t-30.5 75.5q-35 68 -88.5 123.5t-109.5 82.5l-39 19l23 15q21 14 39 39.5t18 41.5t-16 30.5t-43 22.5q-30 9 -94 9t-94 -9q-28 -8 -44 -21.5t-16 -28.5q0 -22 18 -47
t48 -45l12 -8l-33 -15q-75 -36 -141 -115.5t-91 -165.5q-13 -44 -6 -95.5t31 -90.5q12 -19 42 -46t50 -38q130 -66 321 -39zM496 140q-10 10 -10 43v34h-35q-33 0 -46.5 6.5t-15.5 22.5q-2 19 9.5 25.5t46.5 6.5h41v18v18h-41q-27 0 -35 2t-14 9q-13 19 -2.5 32.5t41.5 16.5
l26 3l-26 26q-40 40 -17 61q12 11 24.5 6t39.5 -32l34 -34l35 34q27 27 40 32t24.5 -7t7.5 -25.5t-25 -34.5l-26 -26l27 -3q30 -3 41 -18t-6 -32q-6 -6 -15.5 -8t-33.5 -2h-38v-18v-18h38q30 0 42 -6.5t12 -22.5q0 -17 -11 -23.5t-42 -8.5l-39 -2v-32q0 -53 -31 -53
q-10 0 -20 10z" />
    <glyph glyph-name="uniE627" unicode="&#xe627;" 
d="M873 832h-726q-25 0 -42.5 -17t-17.5 -42v-776q0 -20 12 -36l48 95l61 -119l60 119l61 -119l60 119l61 -119l60 119l61 -119l60 119l61 -119l60 119l61 -119l60 119l49 -95q12 16 12 36v776q0 25 -18 42t-43 17zM410 251q-31 -32 -78 -41v-55q-3 0 -16 -5t-18 -5t-12 3.5
t-11 4.5v54h-5q-19 0 -35 1t-30 3q-14 3 -28 6.5t-29 8.5q1 15 6 30t12 31q25 -9 47.5 -12t47.5 -3q39 0 59.5 10.5t20.5 35.5q0 12 -5.5 20t-14.5 13t-20 8.5t-21 7.5l-32 12q-20 7 -36.5 15t-28 19t-18 25.5t-6.5 36.5q0 45 31 71.5t85 32.5v54q13 3 26 3q3 0 10 0.5
t10.5 0.5t10.5 -1v-55q11 0 43 -6q22 -5 47 -12q-4 -29 -20 -58q-8 3 -18 6q-9 3 -20 5t-24 3.5t-30 1.5q-10 0 -21 -1.5t-19.5 -5.5t-13.5 -11.5t-5 -18.5q0 -10 4 -17.5t11 -12t16.5 -8t18.5 -7.5l36 -12q23 -8 42 -16.5t32 -20t20 -28t7 -41.5q0 -41 -28 -70zM879 268
q0 -8 -8 -8h-321q-8 0 -8 8v55q0 8 8 8h321q8 0 8 -8v-55zM879 420q0 -8 -8 -8h-321q-8 0 -8 8v55q0 8 8 8h321q8 0 8 -8v-55zM879 563q0 -8 -8 -8h-321q-8 0 -8 8v55q0 9 8 9h321q8 0 8 -9v-55z" />
    <glyph glyph-name="uniE628" unicode="&#xe628;" horiz-adv-x="1144" 
d="M1056 330q0 -10 -6 -17q-4 -4 -8 -4l-37 1q-13 1 -24 -6t-14 -20q-30 -108 -121 -187q-1 0 -2 -1v-1q-3 -3 -4 -5l-2 -2l-1 -3q-1 -1 -2 -4q0 -2 -0.5 -2.5t-0.5 -3.5q-1 -2 -1 -4v-1l-1 -110q0 -7 -7 -7h-75q-7 0 -7 7v16q0 14 -10.5 24.5t-25.5 10.5q-4 0 -9 -1
q-6 0 -12 -2q-143 -45 -288 -4q-9 6 -19 6q-15 0 -25.5 -10.5t-10.5 -25.5v-14q0 -7 -7 -7h-74q-8 0 -8 8l-1 84q0 3 -1 6q4 21 -13 35q-70 55 -108.5 131.5t-38.5 159.5q0 107 59.5 197t161.5 142.5t223 52.5q81 0 157 -25h1q1 -1 4 -2h3h3h4h1h1q3 1 5 2h1q42 14 69 30
l75 43l-12 -92q-6 -42 10 -74v-1q1 0 1.5 -2t1.5 -2q2 -3 5 -7v0q73 -72 100 -166q5 -19 25 -24q6 -2 11 -2l40 -1q6 0 10.5 -6t4.5 -15zM102 734q3 4 7 4q3 0 6 -4q3 -3 4 -9q0 -10 -6 -16q-3 -3 -6 -3h-1l-1 1l-3 4q-4 4 -4 11.5t4 11.5zM133 665l-1 -1h-1h1q0 1 1 1z
M1043 517l-16 1q-33 93 -106 166q-5 12 -2 31l14 111v4q0 21 -10 36.5t-24 22.5q-33 18 -69 -6l-82 -48q-16 -9 -45 -20q-82 26 -167 26q-110 0 -208 -39.5t-170 -109.5q9 17 8 34q0 22 -14 38l-1 1q0 1 -1 1.5t-1.5 1t-1 1.5t-1.5 1v1h-1q-16 14 -36 14q-25 0 -42 -19
q-8 -8 -12 -20q-6 9 -8 17q-3 10 -12 14.5t-18 1.5t-14 -11.5t-2 -18.5q17 -53 64 -73q11 -33 36 -50q-80 -114 -80 -249q0 -95 42 -183t119 -153l1 -81q0 -33 23 -56t56 -23h74q24 0 43.5 13t28.5 34q64 -14 128 -14q71 0 141 18q9 -23 29 -37t44 -14h75q32 0 55 23t23 56
l2 94q86 80 122 184h14h1q33 0 58 24q28 28 28 68v94q1 38 -24.5 65.5t-60.5 27.5zM787 556q-30 0 -51.5 -21.5t-21.5 -52t21.5 -52t51.5 -21.5t51.5 21.5t21.5 52t-21.5 52t-51.5 21.5z" />
    <glyph glyph-name="uniE629" unicode="&#xe629;" 
d="M164 630h398q23 0 38.5 15.5t15.5 37.5v42q0 22 -15.5 37.5t-38.5 15.5h-398q-22 0 -37.5 -15.5t-15.5 -37.5v-42q0 -22 15.5 -37.5t37.5 -15.5zM494 436q28 32 63 55v40q0 23 -16 38.5t-38 15.5h-398q-22 0 -38 -15.5t-16 -38.5v-41q0 -22 16 -38t38 -16h389zM111 338
v-41q0 -23 15.5 -38.5t37.5 -15.5h259q0 80 40 149h-299q-22 0 -37.5 -16t-15.5 -38zM135 199q-23 0 -38.5 -16t-15.5 -38v-41q0 -23 15.5 -38.5t38.5 -15.5h359q-55 65 -68 149h-291zM720 496q-105 0 -179 -74t-74 -179t74 -179t179 -74t179 74t74 179t-74 179t-179 74z
M821 202q8 0 14 -5.5t6 -13.5t-6 -13.5t-14 -5.5h-71v-40q0 -11 -8 -18t-19 -7t-19 7t-8 18v40h-71q-8 0 -14 5.5t-6 13.5t6 13.5t14 5.5h71v27h-71q-8 0 -14 5.5t-6 13t6 13t14 5.5h71v21l-71 69q-7 6 -7 15t7 15.5t16.5 6.5t16.5 -7l65 -62l65 62q7 7 16.5 7t16.5 -6.5
t7 -15.5t-7 -15l-71 -69v-21h71q8 0 14 -5.5t6 -13t-6 -13t-14 -5.5h-71v-27h71z" />
    <glyph glyph-name="uniE62A" unicode="&#xe62a;" 
d="M820 502q-41 53 -90.5 100.5t-91.5 76.5q6 7 21 24q9 12 11 13q10 10 28 27q56 52 76 82q11 17 6 33q-8 21 -37 22q-81 2 -227 0h-2h-1q-155 2 -227 0q-29 -1 -37 -22q-5 -16 6 -33q22 -32 76 -82q20 -19 28 -27q3 -3 11 -13q20 -24 31 -35q-118 -86 -178 -149
q-99 -105 -131 -228q-32 -124 51 -231q61 -79 167 -128q101 -46 199 -46q85 0 162 27.5t137 79.5q61 52 93.5 119.5t32.5 141.5q0 105 -114 248zM359 773q-46 42 -64 66q71 2 209 0h10h10q135 2 210 0q-18 -24 -64 -66q-22 -21 -29 -28q-3 -3 -13 -15q-29 -35 -33 -39
q-6 0 -27.5 0.5t-32.5 0.5q-10 -1 -26 -1h-9h-8q-29 0 -54 -1q-9 7 -37 40q-8 9 -13 15q-10 10 -29 28zM509 -73q-92 0 -186.5 44.5t-147.5 113.5q-71 91 -44 196q13 49 38.5 95.5t52 80t70 72.5t72 61t77.5 57l73 1l97 -1q40 -26 87.5 -72t91.5 -100.5t73.5 -114.5
t29.5 -106q0 -89 -51.5 -164t-140 -119t-192.5 -44zM643 455l-127 -177h-4l-110 176l-21 -13l102 -163h-106v-25h121l3 -4l-2 -64h-122v-24h121l-2 -86l25 -1l2 87h122v24h-121l1 64l3 4h117v25h-99l117 162z" />
    <glyph glyph-name="uniE62B" unicode="&#xe62b;" 
d="M944 31q0 -39 -27.5 -66.5t-66.5 -27.5h-679q-38 0 -65.5 27.5t-27.5 66.5v598q0 38 27.5 65.5t65.5 27.5h679q39 0 66.5 -27.5t27.5 -65.5v-598zM890 629q0 16 -11.5 27.5t-28.5 11.5h-679q-16 0 -27.5 -11.5t-11.5 -27.5v-598q0 -16 11.5 -28t27.5 -12h679
q17 0 28.5 12t11.5 28v598zM796 32h-85q-6 0 -10 4t-4 9.5t4 9.5t10 4h85q12 0 17.5 6t5.5 26q0 6 4.5 10t10.5 4t10.5 -4t4.5 -10v-5l-1 -1v-1q-3 -52 -52 -52zM833.5 135q-5.5 0 -9.5 4t-4 9.5t4 9.5q10 9 20 0q3 -4 3 -9.5t-3 -9.5q-5 -4 -10.5 -4zM278 343h-14
q-5 0 -9 4t-4 10t4 9.5t9 3.5h14q5 0 9 -3.5t4 -9.5t-4 -10t-9 -4zM373 343h-14q-6 0 -9.5 4t-3.5 10t3.5 9.5t9.5 3.5h14q5 0 9 -3.5t4 -9.5t-4 -10t-9 -4zM467 343h-13q-6 0 -10 4t-4 10t4 9.5t10 3.5h13q6 0 10 -3.5t4 -9.5t-4 -10t-10 -4zM549 343h-14q-6 0 -9.5 4
t-3.5 10t3.5 9.5t9.5 3.5h14q5 0 9 -3.5t4 -9.5t-4 -10t-9 -4zM643 343h-13q-6 0 -10 4t-4 10t4 9.5t10 3.5h13q6 0 10 -3.5t4 -9.5t-4 -10t-10 -4zM738 343h-13q-6 0 -10 4t-4 10t4 9.5t10 3.5h13q6 0 10 -3.5t4 -9.5t-4 -10t-10 -4zM278 262h-14q-5 0 -9 4t-4 9.5t4 9.5
t9 4h14q5 0 9 -4t4 -9.5t-4 -9.5t-9 -4zM373 262h-14q-6 0 -9.5 4t-3.5 9.5t3.5 9.5t9.5 4h14q5 0 9 -4t4 -9.5t-4 -9.5t-9 -4zM467 262h-13q-6 0 -10 4t-4 9.5t4 9.5t10 4h13q6 0 10 -4t4 -9.5t-4 -9.5t-10 -4zM549 262h-14q-6 0 -9.5 4t-3.5 9.5t3.5 9.5t9.5 4h14
q5 0 9 -4t4 -9.5t-4 -9.5t-9 -4zM643 262h-13q-6 0 -10 4t-4 9.5t4 9.5t10 4h13q6 0 10 -4t4 -9.5t-4 -9.5t-10 -4zM738 262h-13q-6 0 -10 4t-4 9.5t4 9.5t10 4h13q6 0 10 -4t4 -9.5t-4 -9.5t-10 -4zM278 100h-14q-5 0 -9 4t-4 9.5t4 9.5t9 4h14q5 0 9 -4t4 -9.5t-4 -9.5
t-9 -4zM373 100h-14q-6 0 -9.5 4t-3.5 9.5t3.5 9.5t9.5 4h14q5 0 9 -4t4 -9.5t-4 -9.5t-9 -4zM467 100h-13q-6 0 -10 4t-4 9.5t4 9.5t10 4h13q6 0 10 -4t4 -9.5t-4 -9.5t-10 -4zM549 100h-14q-6 0 -9.5 4t-3.5 9.5t3.5 9.5t9.5 4h14q5 0 9 -4t4 -9.5t-4 -9.5t-9 -4zM278 181
h-14q-5 0 -9 4t-4 9.5t4 9.5t9 4h14q5 0 9 -4t4 -9.5t-4 -9.5t-9 -4zM373 181h-14q-6 0 -9.5 4t-3.5 9.5t3.5 9.5t9.5 4h14q5 0 9 -4t4 -9.5t-4 -9.5t-9 -4zM467 181h-13q-6 0 -10 4t-4 9.5t4 9.5t10 4h13q6 0 10 -4t4 -9.5t-4 -9.5t-10 -4zM549 181h-14q-6 0 -9.5 4
t-3.5 9.5t3.5 9.5t9.5 4h14q5 0 9 -4t4 -9.5t-4 -9.5t-9 -4zM643 181h-13q-6 0 -10 4t-4 9.5t4 9.5t10 4h13q6 0 10 -4t4 -9.5t-4 -9.5t-10 -4zM738 181h-13q-6 0 -10 4t-4 9.5t4 9.5t10 4h13q6 0 10 -4t4 -9.5t-4 -9.5t-10 -4zM267 574q-11 0 -19 7.5t-8 19.5v203
q0 11 8 19t19 8t19 -8t8 -19v-203q0 -12 -8 -19.5t-19 -7.5zM741 574q-11 0 -19 7.5t-8 19.5v203q0 11 8 19t19 8t19 -8t8 -19v-203q0 -12 -8 -19.5t-19 -7.5zM914 465h-812q-6 0 -10 4t-4 9.5t4 9.5t10 4h812q6 0 10 -4t4 -9.5t-4 -9.5t-10 -4z" />
    <glyph glyph-name="uniE62C" unicode="&#xe62c;" 
d="M575 290q43 28 46 84q-9 95 -102 101q-97 -6 -104 -99q0 -24 22 -24q22 -2 24 24q4 54 56 56q52 -4 56 -63q0 -54 -56 -64q-28 -7 -26 -22q0 -19 30 -19q69 0 69 -74q-6 -69 -75 -73q-50 0 -65 49q-11 26 -28 26q-22 -4 -22 -28q17 -84 117 -86q119 4 125 116
q-4 72 -67 96zM846 716h-74v32q0 12 -9 21t-21.5 9t-21 -9t-8.5 -21v-32h-93v32q0 12 -9 21t-21.5 9t-21 -9t-8.5 -21v-32h-94v32q0 12 -8.5 21t-21 9t-21.5 -9t-9 -21v-32h-93v32q0 12 -8.5 21t-21.5 9q-12 0 -21 -9t-9 -21v-32h-74q-40 0 -68 -28t-28 -67v-203v-151v-182
q0 -39 28 -67t68 -28h668q40 0 68 28t28 67v182v151v203q0 39 -28 67t-68 28zM178 667h74v-38q0 -12 9 -21t21 -9q13 0 21.5 9t8.5 21v38h93v-38q0 -12 9 -21t21.5 -9t21 9t8.5 21v38h94v-38q0 -12 8.5 -21t21 -9t21.5 9t9 21v38h93v-38q0 -12 8.5 -21t21 -9t21.5 9t9 21v38
h74q20 0 33.5 -13.5t13.5 -32.5v-57h-762v57q0 19 13.5 32.5t33.5 13.5zM893 267v-182q0 -19 -13.5 -32.5t-33.5 -13.5h-668q-20 0 -33.5 13.5t-13.5 32.5v182v151v96h762v-96v-151z" />
    <glyph glyph-name="uniE62D" unicode="&#xe62d;" 
d="M860 -3q27 39 27 86q0 63 -44.5 107.5t-107.5 44.5t-107.5 -44.5t-44.5 -107.5t44.5 -107.5t107.5 -44.5q47 0 86 27l97 -97l39 39zM734.5 -22q-43.5 0 -74 31t-30.5 74.5t30.5 74t74 30.5t74.5 -30.5t31 -74t-31 -74.5t-74.5 -31zM609 -37q-50 51 -50 122q0 9 1 17
q-36 1 -42 7.5t-6 42.5v120q0 13 4 18t17 4q95 -1 215 0q12 0 16 -4t4 -16v-18q35 -7 64 -28v89q0 22 -10.5 32t-33.5 10h-124q-96 0 -123 -1q-19 0 -25.5 6.5t-3.5 24.5v1v2q0 9 -1.5 30t-0.5 35.5t7 23.5q6 8 19.5 9.5t34.5 -1t30 -2.5q39 1 39 37q1 18 1 91v91
q0 7 -2.5 13t-8.5 14t-7 10h-286q-19 -21 -18 -53v-78v-78q1 -28 10 -37t37 -10h3h3q9 -1 27 1t30 1.5t13 -7.5q3 -10 5 -21.5t2 -24.5v-22q0 -9 -1 -25t-2 -23q0 -6 -3.5 -7.5t-11.5 -0.5t-9 1h-244q-31 0 -40.5 -9.5t-9.5 -39.5v-185q0 -14 -4.5 -19.5t-16.5 -3.5
q-16 2 -44 -16v-157q4 -3 11 -9l9 -10h189q17 21 16 50q-1 17 -0.5 48.5t-0.5 49.5q0 26 -9 34.5t-36 9.5q-37 2 -43.5 8.5t-6.5 43.5v120q-1 12 3.5 16t16.5 4q105 -1 218 0q10 0 14 -4t4 -14q-1 -79 0 -153q0 -12 -4 -16.5t-15 -4.5q-24 -1 -33.5 -1.5t-21 -5t-14 -7
t-6 -15t-3.5 -21.5v-34v-56q-2 -31 18 -52h222q19 20 18 52v1z" />
    <glyph glyph-name="uniE62E" unicode="&#xe62e;" 
d="M888 147v106v64h-64h-280v85h185v346h-434v-346h185v-85h-281h-64v-64v-106h-126v-295h317v295h-126v106h280v-106h-127v-295h318v295h-127v106h280v-106h-126v-295h317v295h-127zM359 684h306v-218h-306v218zM262 83v-167h-189v167h62h64h63zM607 -84h-190v167h190v-167
zM951 -84h-189v167h62h64h63v-167z" />
    <glyph glyph-name="uniE62F" unicode="&#xe62f;" 
d="M885 654h-671q-27 0 -51 -24t-24 -51v-484q0 -27 24 -50.5t51 -23.5h559l186 186v372q0 27 -24 51t-50 24zM773 356h74v37h-74v112h112v-37h-75v-38h75v-111h-112v37zM363 319h-37v74h-38v37h-37v-111h-37v186h37v-37h37v-38h38v75h37v-186zM512 468h-75v-38h75v-37h-75
v-37h75v-37h-112v186h112v-37zM698 319h-37v74h-37v-74h-37v74h-38v112h38v-112h37v112h37v-112h37v112h38v-112h-38v-74zM922 207l-149 -149q-2 -1 -4.5 -1t-9 0.5t-11.5 3.5t-9 12t-3 22v112q0 4 2 10t11.5 16.5t23.5 10.5h112l28 -8q27 -11 9 -29zM102 58v484h-4
q-2 0 -8.5 -2t-11.5 -5.5t-9 -11t-4 -18.5v-484q0 -4 1 -9t6.5 -17.5t13 -22.5t21.5 -18t32 -8h597l10 2q6 2 16.5 11.5t10.5 23.5h-596q-4 1 -9 2t-17.5 6t-22.5 12.5t-18 22t-8 32.5z" />
    <glyph glyph-name="uniE630" unicode="&#xe630;" 
d="M176 529h-115v-518q0 -48 31.5 -81t78.5 -33h3h2v632zM985 529v173h-751v-173v-636h751v116h1v520h-1zM523 -47h-173v172h173v-172zM523 184h-173v173h173v-173zM523 415h-173v170h173v-170zM870 -47h-289v52h289v-52zM870 69h-289v57h289v-57zM870 186h-289v54h289v-54z
M870 298h-289v59h289v-59zM870 415h-289v56h289v-56zM870 531h-289v56h289v-56z" />
    <glyph glyph-name="uniE631" unicode="&#xe631;" horiz-adv-x="1067" 
d="M798 735q-116 85 -260 85q-89 0 -170 -34.5t-139.5 -93t-93 -139.5t-34.5 -169.5t34.5 -169.5t93 -139.5t139.5 -93t170 -34.5t169.5 34.5t139 93t93.5 139.5t35 170q0 124 -66 230q-6 9 -17 12t-20.5 -3t-12 -17t3.5 -21q57 -92 57 -201q0 -104 -51 -192.5t-139 -139.5
t-192 -51t-192.5 51t-139.5 139.5t-51 192.5t51 192t139.5 139t192.5 51q126 0 228 -75q9 -7 20 -5t17.5 11t5 20t-10.5 18zM492 487h162q8 0 14 6t6 14.5t-6 14.5t-14 6h-162q-9 0 -15 -6t-6 -14.5t6 -14.5t15 -6zM490 370h162q8 0 14 6t6 14.5t-6 14.5t-14 6h-162
q-9 0 -15 -6t-6 -14.5t6 -14.5t15 -6zM490 244h90q8 0 14 6t6 14.5t-6 14t-14 5.5h-90q-9 0 -15 -5.5t-6 -14t6 -14.5t15 -6zM722 631h-297q-15 0 -25.5 -10.5t-10.5 -25.5v-126h-63q-12 0 -20.5 -8.5t-8.5 -20.5v-266q0 -12 8.5 -20.5t20.5 -8.5h90v1q5 -1 9 -1h297
q15 0 25.5 10.5t10.5 25.5v414q0 15 -10.5 25.5t-25.5 10.5zM389 185h-52v244h52v-244zM718 591v-406h-288v406h288z" />
    <glyph glyph-name="uniE632" unicode="&#xe632;" 
d="M171 555q53 0 90.5 37.5t37.5 90.5t-37.5 90.5t-90.5 37.5t-90.5 -37.5t-37.5 -90.5t37.5 -90.5t90.5 -37.5zM171 -43q53 0 90.5 37.5t37.5 90.5t-37.5 90.5t-90.5 37.5t-90.5 -37.5t-37.5 -90.5t37.5 -90.5t90.5 -37.5zM171 256q53 0 90.5 37.5t37.5 90.5t-37.5 90.5
t-90.5 37.5t-90.5 -37.5t-37.5 -90.5t37.5 -90.5t90.5 -37.5zM170.5 640q-17.5 0 -30 12.5t-12.5 30t12.5 30t30 12.5t30 -12.5t12.5 -30t-12.5 -30t-30 -12.5zM170.5 341q-17.5 0 -30 12.5t-12.5 30.5t12.5 30.5t30 12.5t30 -12.5t12.5 -30.5t-12.5 -30.5t-30 -12.5z
M170.5 43q-17.5 0 -30 12.5t-12.5 30t12.5 30t30 12.5t30 -12.5t12.5 -30t-12.5 -30t-30 -12.5zM962 640q18 0 30.5 12.5t12.5 30t-12.5 30t-30.5 12.5h-554q-18 0 -30.5 -12.5t-12.5 -30t12.5 -30t30.5 -12.5h554zM408 341h554q18 0 30.5 12.5t12.5 30.5t-12.5 30.5
t-30.5 12.5h-554q-18 0 -30.5 -12.5t-12.5 -30.5t12.5 -30.5t30.5 -12.5zM408 43h554q18 0 30.5 12.5t12.5 30t-12.5 30t-30.5 12.5h-554q-18 0 -30.5 -12.5t-12.5 -30t12.5 -30t30.5 -12.5z" />
    <glyph glyph-name="uniE633" unicode="&#xe633;" 
d="M1 -128v876h131v132h876v-1008h-1007zM942 814h-744v-811h-66v679h-67v-744h877v876zM526 485h-263v263h263v-263zM461 682h-132v-131h132v131zM877 354h-614v44h614v-44zM877 266h-614v44h614v-44zM526 179h-263v43h263v-43zM526 91h-263v44h263v-44zM526 3h-263v44h263
v-44zM877 179h-263v43h263v-43zM877 91h-263v44h263v-44zM877 3h-263v44h263v-44zM614 529h263v-44h-263v44zM614 595h263v-44h-263v44zM614 661h263v-44h-263v44z" />
    <glyph glyph-name="uniE634" unicode="&#xe634;" 
d="M770 -78q-23 0 -38.5 15.5t-15.5 38.5v150q0 23 15.5 38.5t38.5 15.5h45v166q0 8 -6 13.5t-14 5.5h-255v-184h47q23 0 38.5 -16t15.5 -38v-151q0 -23 -15.5 -38.5t-38.5 -15.5h-150q-23 0 -38.5 15.5t-15.5 38.5v151q0 22 15.5 38t38.5 16h43v184h-251q-8 0 -14 -5.5
t-6 -13.5v-166h45q23 0 38.5 -15.5t15.5 -38.5v-150q0 -23 -15.5 -38.5t-38.5 -15.5h-151q-22 0 -38 15.5t-16 38.5v150q0 23 16 38.5t38 16.5h47v165q0 32 23 55t56 23h251v166h-43q-23 0 -38.5 15.5t-15.5 38.5v150q0 23 15.5 38.5t38.5 15.5h150q23 0 38.5 -15.5
t15.5 -38.5v-150q0 -23 -15.5 -38.5t-38.5 -15.5h-47v-166h255q33 0 56 -23t23 -55v-166h47q22 0 38 -15.5t16 -38.5v-150q0 -23 -16 -38.5t-38 -15.5h-151zM915 -19v140h-140v-140h140zM582 -19v140h-140v-140h140zM249 -19v140h-141v-140h141zM582 649v140h-140v-140h140z
M587 843q21 0 35 -14t14 -35v-150q0 -21 -14 -35t-35 -14h-53v-176h261q31 0 52.5 -21.5t21.5 -51.5v-171h52q20 0 34 -14t15 -35v-150q0 -21 -14.5 -35t-34.5 -14h-151q-20 0 -34.5 14t-14.5 35v150q0 21 14.5 35t34.5 14h50v171q0 10 -7.5 17t-17.5 7h-260v-195h52
q21 0 35 -14t14 -34v-151q0 -21 -14 -35t-35 -14h-150q-21 0 -35 14t-14 35v151q0 20 14 34t35 14h49v195h-257q-10 0 -17.5 -7t-7.5 -17v-171h50q20 0 34.5 -14t14.5 -35v-150q0 -21 -14.5 -35t-34.5 -14h-151q-20 0 -34.5 14t-14.5 35v150q0 21 14.5 35t34.5 14h52v171
q0 30 21.5 51.5t52.5 21.5h257v176h-49q-21 0 -35 14t-14 35v150q0 21 14 35t35 14h150zM437 644h150v150h-150v-150zM770 -24h151v150h-151v-150zM437 -24h150v150h-150v-150zM103 -24h151v150h-151v-150zM587 854h-150q-25 0 -42.5 -17.5t-17.5 -42.5v-150
q0 -25 17.5 -42.5t42.5 -17.5h38v-155h-246q-35 0 -59.5 -24.5t-24.5 -58.5v-160h-42q-24 0 -41.5 -17.5t-17.5 -42.5v-150q0 -25 17.5 -42t41.5 -17h151q25 0 42 17t17 42v150q0 25 -17 42.5t-42 17.5h-40v160q0 5 4.5 9.5t10.5 4.5h246v-174h-38q-25 0 -42.5 -17.5
t-17.5 -41.5v-151q0 -25 17.5 -42t42.5 -17h150q25 0 42.5 17t17.5 42v151q0 24 -17.5 41.5t-42.5 17.5h-42v174h250q6 0 10.5 -4.5t4.5 -9.5v-160h-40q-25 0 -42 -17.5t-17 -42.5v-150q0 -25 17 -42t42 -17h151q24 0 41.5 17t17.5 42v150q0 25 -17.5 42.5t-41.5 17.5h-42
v160q0 34 -24.5 58.5t-59.5 24.5h-250v155h42q25 0 42 17.5t17 42.5v150q0 25 -17 42.5t-42 17.5zM447 784h130v-130h-130v130zM780 116h130v-130h-130v130zM447 116h130v-130h-130v130zM114 116h130v-130h-130v130z" />
  </font>
</defs>
</svg>
